<svg id="Calque_1" data-name="Calque 1" xmlns="http://www.w3.org/2000/svg" viewBox="0 0 1499.62 1029.05"><defs><style>.cls-1{fill:#9c1915;}.cls-2{fill:#152f42;}.cls-3{fill:#f6f9f2;}.cls-4{fill:#e03122;}.cls-5{fill:#ee8682;}.cls-6{fill:#fff;}.cls-7{fill:#d6decb;}.cls-8{fill:#1a4358;}.cls-9{fill:#457b9f;}.cls-10{fill:#b7dde0;}</style></defs><rect class="cls-1" x="171.31" y="878.04" width="1157" height="151"/><rect class="cls-2" x="204.98" y="977.43" width="1089.66" height="18.37"/><rect class="cls-3" x="204.98" y="969.89" width="1089.66" height="18.37"/><path class="cls-4" d="M1499.6,460.83c0-1.74,0-3.47,0-5.2l0-6.12c0-.54,0-1.06,0-1.57q-.08-10.9-.2-21.8-.09-8.64-.23-17.28-.18-10.47-.38-21c-.16-7.8-.35-15.58-.55-23.38q-.53-19.12-1.2-38.25-.37-10.33-.79-20.64-3.06-74.6-8.84-149.38-.79-10.49-1.66-21-1.21-14.67-2.53-29.34-.84-9.54-1.74-19.08a80.75,80.75,0,0,0-76.87-73.19q-655-27.34-1309.5,0A80.74,80.74,0,0,0,18.2,86.86q-.9,9.54-1.75,19.08-1.3,14.67-2.52,29.34-.86,10.47-1.66,21Q10.74,176,9.4,195.71q-.8,11.83-1.53,23.65c0,.16,0,.32,0,.5q-.51,8.25-1,16.5t-.92,16.51q-.44,8.25-.85,16.5-1.23,24.74-2.16,49.47-.63,16.49-1.12,33c0,.23,0,.45,0,.67-.11,3.9-.23,7.81-.32,11.71q-.12,4.32-.22,8.64c-.1,4.23-.2,8.44-.29,12.67,0,2.15-.09,4.3-.13,6.47-.06,3.59-.14,7.19-.2,10.78-.06,3.22-.1,6.43-.15,9.65,0,1.18,0,2.36,0,3.54l-.06,4.24q0,3-.07,6Q.22,432,.16,437.82L.07,449.5c0,3.78,0,7.55,0,11.33Q0,478.52.07,496.2c0,.25,0,.49,0,.73,0,1.45,0,2.91,0,4.36q0,3.84.05,7.68c0,1.51,0,3,0,4.53q0,3.66.09,7.31c0,.5,0,1,0,1.5q0,3.11.06,6.22.09,6.4.2,12.83.12,7.26.27,14.51.13,6.63.29,13.28.29,12,.63,24.1t.78,24.08q.44,12.06.93,24.11t1.06,24.1q.57,12.06,1.21,24.12c.21,4,.43,8,.66,12.06q.68,12.06,1.42,24.13Q9,744,10.24,762.08q.86,12.07,1.78,24.16t1.91,24.19q1,12.11,2.07,24.2t2.2,24.22A80.75,80.75,0,0,0,95.06,932q38.13,1.58,76.25,3,578.67,21.36,1157,0h0q38.12-1.41,76.24-3a80.76,80.76,0,0,0,76.87-73.19c10.7-113.93,16.67-227.18,17.93-340.38q.06-5.47.11-11,.06-5.65.09-11.31.06-12.13.06-24.25Q1499.62,466.38,1499.6,460.83ZM105.47,766.07C96.15,667.25,91.5,569.61,91.53,472c0-97.06,4.68-194.12,13.94-292.32A43.92,43.92,0,0,1,147,140a8638.37,8638.37,0,0,1,876.44,0,43.92,43.92,0,0,1,41.52,39.6c9.27,98.21,13.91,195.26,13.94,292.32,0,97.65-4.63,195.29-14,294.11a43.91,43.91,0,0,1-41.51,39.6,8638.37,8638.37,0,0,1-876.44,0,44,44,0,0,1-41.52-39.6Z"/><path class="cls-5" d="M1499.62,472H1078.89c0-97.06-4.67-194.11-13.94-292.32a43.92,43.92,0,0,0-41.52-39.6A8638.37,8638.37,0,0,0,147,140a43.92,43.92,0,0,0-41.52,39.6C96.21,277.84,91.56,374.9,91.53,472H0q0-6,0-12,0-11.07.13-22.13.06-5.83.13-11.68,0-3,.07-6l.06-4.24c0-1.18,0-2.36,0-3.54.05-3.22.09-6.43.15-9.65.06-3.59.14-7.19.2-10.78,0-2.17.09-4.32.13-6.47.09-4.23.19-8.44.29-12.67q.11-4.32.22-8.64c.09-3.9.21-7.81.32-11.71,0-.22,0-.44,0-.67q.49-16.49,1.12-33,.93-24.72,2.16-49.47.4-8.25.85-16.5t.92-16.51q.48-8.25,1-16.5c0-.18,0-.34,0-.5q.73-11.82,1.53-23.65,1.33-19.72,2.87-39.47.8-10.49,1.66-21,1.21-14.67,2.52-29.34.86-9.54,1.75-19.08A80.74,80.74,0,0,1,95.06,13.67q655-27.34,1309.5,0a80.75,80.75,0,0,1,76.87,73.19q.9,9.54,1.74,19.08,1.32,14.67,2.53,29.34.85,10.47,1.66,21,5.79,74.82,8.84,149.38.4,10.32.79,20.64.67,19.11,1.2,38.25c.2,7.8.39,15.58.55,23.38q.21,10.49.38,21,.14,8.64.23,17.28.12,10.89.2,21.8c0,.51,0,1,0,1.57l0,6.12c0,1.73,0,3.46,0,5.2Q1499.61,466.38,1499.62,472Z"/><path class="cls-1" d="M1499.62,472q0,12.12-.06,24.25,0,5.66-.09,11.31,0,5.48-.11,11c-1.26,113.2-7.23,226.45-17.93,340.38A80.76,80.76,0,0,1,1404.56,932q-38.13,1.58-76.24,3h0q-578.64,21.36-1157,0-38.12-1.41-76.25-3A80.75,80.75,0,0,1,18.2,858.85Q17,846.74,16,834.63t-2.07-24.2q-1-12.09-1.91-24.19t-1.78-24.16Q9,744,7.84,725.85q-.75-12.06-1.42-24.13c-.23-4-.45-8-.66-12.06q-.64-12.07-1.21-24.12t-1.06-24.1q-.5-12.06-.93-24.11t-.78-24.08q-.34-12.06-.63-24.1Q1,562.51.86,555.87q-.15-7.26-.27-14.51-.1-6.43-.2-12.83,0-3.12-.06-6.22c0-.5,0-1,0-1.5q-.06-3.64-.09-7.31c0-1.51,0-3,0-4.53q0-3.84-.05-7.68c0-1.45,0-2.91,0-4.36Q0,484.45,0,472H91.53c0,97.65,4.62,195.29,13.94,294.11A44,44,0,0,0,147,805.67a8638.37,8638.37,0,0,0,876.44,0,43.91,43.91,0,0,0,41.51-39.6c9.32-98.82,14-196.46,14-294.11Z"/><path class="cls-4" d="M1499.6,460.83c0-1.74,0-3.47,0-5.2l0-6.12c0-.54,0-1.06,0-1.57q-.08-10.9-.2-21.8-2-163.51-17.92-327.77c-3.77-39-36.58-69.38-76.87-71q-655-26.52-1309.5,0C54.77,29,22,59.41,18.2,98.36Q2.77,257.77.42,415.93l-.06,4.24q0,3-.07,6Q.22,432,.16,437.82L.07,449.5c0,3.48,0,7,0,10.45,0,.3,0,.59,0,.88Q0,478.52.07,496.2c0,.25,0,.49,0,.73,0,1.45,0,2.91,0,4.36q0,3.84.05,7.68c0,1.51,0,3,0,4.53q0,3.66.09,7.31c0,.5,0,1,0,1.5q2.09,162.14,17.87,325c3.77,38.95,36.57,69.38,76.86,71q38.13,1.53,76.25,2.9,578.67,20.7,1157,0h0q38.12-1.35,76.24-2.9c40.29-1.64,73.1-32.07,76.87-71q16-165.09,17.93-328.87.06-5.47.11-11,.06-5.65.09-11.31.06-12.13.06-24.25Q1499.62,466.38,1499.6,460.83ZM105.47,766.07C96.15,667.25,91.5,569.61,91.53,472c0-97.06,4.68-194.12,13.94-292.32A43.92,43.92,0,0,1,147,140a8638.37,8638.37,0,0,1,876.44,0,43.92,43.92,0,0,1,41.52,39.6c9.27,98.21,13.91,195.26,13.94,292.32,0,97.65-4.63,195.29-14,294.11a43.91,43.91,0,0,1-41.51,39.6,8638.37,8638.37,0,0,1-876.44,0,44,44,0,0,1-41.52-39.6Z"/><path class="cls-1" d="M1321.3,125.61h2.81a150.8,150.8,0,0,1,150.8,150.8V732.22A150.79,150.79,0,0,1,1324.11,883h-2.81a150.79,150.79,0,0,1-150.79-150.79V276.41a150.8,150.8,0,0,1,150.8-150.8Z"/><rect class="cls-6" x="1182.59" y="137.69" width="280.24" height="733.24" rx="138.72"/><rect class="cls-7" x="1184.85" y="143.62" width="275.71" height="721.39" rx="136.48"/><rect class="cls-3" x="1187.87" y="151.52" width="269.67" height="705.59" rx="133.49"/><path class="cls-5" d="M1062,71.33H104.52A63.7,63.7,0,0,0,40.82,135V810.68a63.69,63.69,0,0,0,63.7,63.69H1062a63.68,63.68,0,0,0,63.69-63.69V135A63.69,63.69,0,0,0,1062,71.33Zm2.91,694.74a43.91,43.91,0,0,1-41.51,39.6,8638.37,8638.37,0,0,1-876.44,0,44,44,0,0,1-41.52-39.6C96.15,667.25,91.5,569.61,91.53,472c0-97.06,4.68-194.12,13.94-292.32A43.92,43.92,0,0,1,147,140a8638.37,8638.37,0,0,1,876.44,0,43.92,43.92,0,0,1,41.52,39.6c9.27,98.21,13.91,195.26,13.94,292.32C1078.92,569.61,1074.26,667.25,1064.94,766.07Z"/><path class="cls-2" d="M1117.52,138c0-.37,0-.74,0-1.1s0-.89-.08-1.33-.07-.87-.11-1.31-.1-1-.16-1.45-.11-1-.18-1.42v0c-.06-.47-.14-.94-.22-1.41s-.15-.95-.24-1.41-.19-.94-.28-1.4c-.14-.68-.3-1.35-.46-2-.1-.4-.2-.8-.31-1.2,0-.13-.07-.26-.11-.39-.1-.38-.21-.75-.32-1.13s-.29-1-.45-1.45-.42-1.24-.64-1.86c-.29-.84-.61-1.66-1-2.49-.07-.2-.15-.39-.24-.59a1.34,1.34,0,0,0-.07-.18c-.27-.66-.56-1.3-.86-2l-.48-1-.07-.13c-.55-1.12-1.13-2.23-1.75-3.32a62.27,62.27,0,0,0-18.6-20.56c-.12-.1-.25-.18-.37-.27-.35-.25-.71-.49-1.07-.72-.52-.36-1-.7-1.59-1s-1.37-.83-2.07-1.23-1.4-.78-2.11-1.15c-1.07-.57-2.16-1.09-3.27-1.59l-.93-.41c-.45-.2-.9-.39-1.36-.57l-1.69-.65c-1.23-.46-2.49-.88-3.77-1.26l-1.6-.44-.08,0c-.81-.22-1.62-.42-2.44-.6l-.08,0c-.53-.12-1.07-.23-1.6-.33s-1.12-.21-1.68-.31L1063.5,78l-1.31-.17q-.33,0-.66-.06c-.48-.06-1-.11-1.46-.15s-.76-.06-1.15-.08l-.86-.05q-.74,0-1.47-.06c-.59,0-1.17,0-1.76,0H111.72A62.74,62.74,0,0,0,49,140.11V805.6c0,1.08,0,2.16.08,3.22,0,.54.06,1.07.1,1.6s.1,1.22.17,1.82.09.9.15,1.34.14,1,.22,1.58.18,1.15.28,1.71c.07.38.15.77.23,1.15.12.59.24,1.18.37,1.76s.24,1,.38,1.5.21.81.32,1.21a63.05,63.05,0,0,0,2.49,7.2c.12.29.24.57.37.86,0,.13.11.26.17.38q.18.44.39.87c.31.69.64,1.38,1,2.05.17.35.35.68.52,1s.37.71.56,1c.56,1,1.12,2,1.72,2.9l.58.92c.22.33.44.65.65,1,.35.5.69,1,1,1.49l.11.15.9,1.21c.82,1.07,1.66,2.11,2.53,3.12.41.47.83.94,1.26,1.4s.77.82,1.17,1.23c.08.08.15.17.24.25.34.35.69.71,1.06,1s1,1,1.53,1.44.91.82,1.37,1.21a1.07,1.07,0,0,1,.16.14c.37.31.75.63,1.13.93q2.44,2,5.07,3.71l1.1.71.37.23c.46.29.94.58,1.42.85l1,.56c.47.26.94.52,1.41.76s.72.38,1.08.55.94.48,1.42.7l.29.13c.48.23,1,.44,1.43.65,1.67.72,3.36,1.37,5.09,1.94.31.1.61.21.93.3.79.25,1.57.49,2.37.7.59.16,1.18.31,1.78.45.41.11.82.2,1.23.28s.93.21,1.4.3l.61.11c.31.07.62.12.94.17s.64.12,1,.16c.54.09,1.09.17,1.64.23l1.86.21.37,0c.42,0,.85.08,1.29.1s.81.06,1.22.08h0c.47,0,1,0,1.43.06s1.17,0,1.77,0h943.11a62.73,62.73,0,0,0,62.73-62.74V140.11C1117.56,139.4,1117.55,138.69,1117.52,138Zm-52.58,628.08a43.91,43.91,0,0,1-41.51,39.6,8638.37,8638.37,0,0,1-876.44,0,44,44,0,0,1-41.52-39.6C96.15,667.25,91.5,569.61,91.53,472c0-97.06,4.68-194.12,13.94-292.32A43.92,43.92,0,0,1,147,140a8638.37,8638.37,0,0,1,876.44,0,43.92,43.92,0,0,1,41.52,39.6c9.27,98.21,13.91,195.26,13.94,292.32C1078.92,569.61,1074.26,667.25,1064.94,766.07Z"/><path class="cls-2" d="M1102,98.83l-63.06,44.88a43.74,43.74,0,0,0-15.51-3.67A8638.37,8638.37,0,0,0,147,140a43.92,43.92,0,0,0-41.52,39.6C96.21,277.84,91.56,374.9,91.53,472c0,97.65,4.62,195.29,13.94,294.11a43.6,43.6,0,0,0,16.6,30.27L59.72,840.72c-.21-.34-.43-.66-.65-1l-.58-.92c-.6-.95-1.16-1.92-1.72-2.9-.19-.34-.38-.7-.56-1s-.35-.66-.52-1c-.35-.67-.68-1.36-1-2.05q-.21-.43-.39-.87c-.06-.12-.12-.25-.17-.38-.13-.29-.25-.57-.37-.86a63.05,63.05,0,0,1-2.49-7.2c-.11-.4-.22-.8-.32-1.21s-.26-1-.38-1.5-.25-1.17-.37-1.76c-.08-.38-.16-.77-.23-1.15-.1-.56-.19-1.14-.28-1.71s-.15-1-.22-1.58-.1-.89-.15-1.34-.13-1.21-.17-1.82-.08-1.06-.1-1.6c-.06-1.06-.08-2.14-.08-3.22V140.11a62.74,62.74,0,0,1,62.74-62.74h943.11c.59,0,1.17,0,1.76,0s1,0,1.47.06l.86.05c.39,0,.77,0,1.15.08s1,.09,1.46.15q.33,0,.66.06l1.31.17,1.69.26c.56.1,1.11.19,1.68.31s1.07.21,1.6.33l.08,0c.82.18,1.63.38,2.44.6l.08,0,1.6.44c1.28.38,2.54.8,3.77,1.26l1.69.65c.46.18.91.37,1.36.57l.93.41c1.11.5,2.2,1,3.27,1.59.71.37,1.42.75,2.11,1.15s1.39.8,2.07,1.23,1.07.67,1.59,1c.36.23.72.47,1.07.72.12.09.25.17.37.27A62.69,62.69,0,0,1,1102,98.83Z"/><path class="cls-8" d="M1117.56,140.11V805.6a62.73,62.73,0,0,1-62.73,62.74H111.72q-.9,0-1.77,0c-.48,0-1,0-1.43-.06h0c-.41,0-.81,0-1.22-.08s-.87,0-1.29-.1l-.37,0-1.86-.21c-.55-.06-1.1-.14-1.64-.23-.32,0-.65-.1-1-.16s-.63-.1-.94-.17l-.61-.11c-.47-.09-.94-.19-1.4-.3s-.82-.17-1.23-.28c-.6-.14-1.19-.29-1.78-.45-.8-.21-1.58-.45-2.37-.7-.32-.09-.62-.2-.93-.3-1.73-.57-3.42-1.22-5.09-1.94-.48-.21-1-.42-1.43-.65l-.29-.13c-.48-.22-1-.45-1.42-.7s-.71-.35-1.08-.55-.94-.5-1.41-.76l-1-.56c-.48-.27-1-.56-1.42-.85l-.37-.23-1.1-.71q-2.62-1.72-5.07-3.71c-.38-.3-.76-.62-1.13-.93a1.07,1.07,0,0,0-.16-.14c-.46-.39-.91-.79-1.37-1.21s-1-1-1.53-1.44-.72-.7-1.06-1c-.09-.08-.16-.17-.24-.25-.4-.41-.79-.81-1.17-1.23s-.85-.93-1.26-1.4c-.87-1-1.71-2.05-2.53-3.12l-.9-1.21-.11-.15c-.35-.49-.69-1-1-1.49l62.35-44.38A43.8,43.8,0,0,0,147,805.67a8638.37,8638.37,0,0,0,876.44,0,43.91,43.91,0,0,0,41.51-39.6c9.32-98.82,14-196.46,14-294.11,0-97.06-4.67-194.11-13.94-292.32a43.88,43.88,0,0,0-26-35.93L1102,98.83a63.14,63.14,0,0,1,7.5,10.57c.62,1.09,1.2,2.2,1.75,3.32.19.39.37.78.55,1.17.3.65.59,1.29.86,2,.06.13.1.27.16.4s.11.25.15.37a1.34,1.34,0,0,0,.07.18c.31.76.6,1.53.88,2.31h0c.22.62.43,1.23.64,1.86s.31,1,.45,1.45.22.75.32,1.13c0,.13.08.26.11.39.11.4.21.8.31,1.2.16.66.32,1.33.46,2,.09.46.19.93.28,1.4s.17.94.24,1.41.16.94.22,1.41v0c.07.47.14,1,.18,1.42s.12,1,.16,1.45.07.87.11,1.31.06.88.08,1.33,0,.73,0,1.1C1117.55,138.69,1117.56,139.4,1117.56,140.11Z"/><circle class="cls-1" cx="1247.99" cy="100.06" r="22.49" transform="translate(278.45 892.2) rotate(-43.83)"/><circle class="cls-1" cx="1321.94" cy="100.06" r="22.49" transform="translate(915.6 1361.97) rotate(-76.48)"/><circle class="cls-1" cx="1395.88" cy="100.06" r="22.49" transform="translate(1070.71 1461.22) rotate(-80.66)"/><circle class="cls-7" cx="1322.7" cy="730.48" r="126.96" transform="translate(-129.11 1149.25) rotate(-45)"/><circle class="cls-2" cx="1322.7" cy="730.48" r="122.43" transform="translate(-129.11 1149.25) rotate(-45)"/><circle class="cls-9" cx="1326.73" cy="733.5" r="117.62" transform="translate(-130.07 1152.98) rotate(-45)"/><path class="cls-2" d="M1326.66,636.5a8.55,8.55,0,1,1-8.55-8.54A8.54,8.54,0,0,1,1326.66,636.5Z"/><path class="cls-2" d="M1326.66,667.83a8.55,8.55,0,1,1-8.55-8.55A8.54,8.54,0,0,1,1326.66,667.83Z"/><path class="cls-2" d="M1326.66,699.15a8.55,8.55,0,1,1-8.55-8.54A8.54,8.54,0,0,1,1326.66,699.15Z"/><path class="cls-2" d="M1326.66,761.8a8.55,8.55,0,1,1-8.55-8.54A8.54,8.54,0,0,1,1326.66,761.8Z"/><path class="cls-2" d="M1326.66,793.13a8.55,8.55,0,1,1-8.55-8.55A8.55,8.55,0,0,1,1326.66,793.13Z"/><path class="cls-2" d="M1326.66,824.45a8.55,8.55,0,1,1-8.55-8.54A8.54,8.54,0,0,1,1326.66,824.45Z"/><circle class="cls-2" cx="1224.14" cy="730.48" r="8.54"/><circle class="cls-2" cx="1255.46" cy="730.48" r="8.54"/><circle class="cls-2" cx="1286.79" cy="730.48" r="8.54"/><circle class="cls-2" cx="1349.44" cy="730.48" r="8.54"/><circle class="cls-2" cx="1380.76" cy="730.48" r="8.54"/><circle class="cls-2" cx="1412.09" cy="730.48" r="8.54"/><path class="cls-2" d="M1257.7,658a8.54,8.54,0,1,1-12.08,0A8.53,8.53,0,0,1,1257.7,658Z"/><path class="cls-2" d="M1279.85,680.14a8.54,8.54,0,1,1-12.08,0A8.53,8.53,0,0,1,1279.85,680.14Z"/><path class="cls-2" d="M1368.45,768.74a8.54,8.54,0,1,1-12.08,0A8.53,8.53,0,0,1,1368.45,768.74Z"/><path class="cls-2" d="M1390.6,790.89a8.54,8.54,0,1,1-12.08,0A8.53,8.53,0,0,1,1390.6,790.89Z"/><path class="cls-2" d="M1245.62,790.89a8.54,8.54,0,1,1,0,12.08A8.53,8.53,0,0,1,1245.62,790.89Z"/><path class="cls-2" d="M1267.77,768.74a8.54,8.54,0,1,1,0,12.08A8.53,8.53,0,0,1,1267.77,768.74Z"/><path class="cls-2" d="M1356.37,680.14a8.54,8.54,0,1,1,0,12.08A8.53,8.53,0,0,1,1356.37,680.14Z"/><path class="cls-2" d="M1378.52,658a8.54,8.54,0,1,1,0,12.08A8.53,8.53,0,0,1,1378.52,658Z"/><circle class="cls-2" cx="1322.7" cy="262.58" r="84.64"/><circle class="cls-8" cx="1322.7" cy="262.58" r="80.11"/><circle class="cls-10" cx="1318.18" cy="258.55" r="58.47"/><circle class="cls-9" cx="1322.7" cy="262.58" r="58.47"/><path class="cls-10" d="M1326.84,351.2H1308.5a7,7,0,0,1-6.84-8.38c12.42-62.2,12.41-98.27,0-160.48a7,7,0,0,1,6.86-8.38h18.31a7,7,0,0,1,6.85,8.38c-12.41,62.21-12.42,98.28,0,160.48A7,7,0,0,1,1326.84,351.2Z"/><path class="cls-2" d="M1331.88,351.2h-18.35a7,7,0,0,1-6.84-8.38c12.42-62.2,12.42-98.27,0-160.48a7,7,0,0,1,6.86-8.38h18.31a7,7,0,0,1,6.86,8.38c-12.42,62.21-12.42,98.28,0,160.48A7,7,0,0,1,1331.88,351.2Z"/><path class="cls-3" d="M1269.14,96a21.26,21.26,0,1,1-21.26-21.25A21.26,21.26,0,0,1,1269.14,96Z"/><path class="cls-3" d="M1339,96a21.26,21.26,0,1,1-21.26-21.25A21.26,21.26,0,0,1,1339,96Z"/><path class="cls-3" d="M1408.92,96a21.26,21.26,0,1,1-21.25-21.25A21.26,21.26,0,0,1,1408.92,96Z"/><circle class="cls-2" cx="1322.71" cy="473.19" r="84.64"/><circle class="cls-8" cx="1322.71" cy="473.19" r="80.11"/><circle class="cls-10" cx="1322.35" cy="467.14" r="58.47"/><circle class="cls-9" cx="1322.7" cy="473.19" r="58.47"/><path class="cls-10" d="M1263,538.78l-13-13a7,7,0,0,1,1.1-10.77c52.76-35.2,78.26-60.71,113.47-113.47a7,7,0,0,1,10.78-1.08l12.94,12.95a7,7,0,0,1-1.08,10.77c-52.76,35.21-78.27,60.71-113.47,113.48A7,7,0,0,1,1263,538.78Z"/><path class="cls-2" d="M1266.53,542.34l-13-13a7,7,0,0,1,1.1-10.77c52.76-35.2,78.26-60.71,113.47-113.47a7,7,0,0,1,10.78-1.08L1391.84,417a7,7,0,0,1-1.08,10.78C1338,463,1312.49,488.48,1277.29,541.24A7,7,0,0,1,1266.53,542.34Z"/><path class="cls-9" d="M1064.22,791.89s-5.66,4.91-10.57,9.81l33.21,50.58s16.23-12.46,21.14-28.69Z"/></svg>