<svg xmlns="http://www.w3.org/2000/svg" viewBox="0 0 280.3 130.4"><style>.st2{fill:#c0cdde}.st3{fill:#003a60}.st4{fill:#fff}</style><g id="logo_du_plan_7"><path class="st2" d="M0 17.3h14.4v71.9H0zM37.1 17.3h-8.3v71.9h14.3V27.8z"/><path class="st3" d="M14.4 17.3h14.4v71.9H14.4zM43.1 27.8v61.4h14.4V52.7z"/><path class="st2" d="M57.5 52.7v36.5h14.4V77.7z"/><g><path class="st2" d="M39.2 0h-6l6 10.5z"/><path class="st3" d="M53.6 35.4V0H39.2v10.5z"/><path class="st2" d="M68 60.3V0H53.6v35.4z"/></g><g id="dessous_45_"><path class="st4" d="M99.4 21.2h-5.8v20.5h-4V21.2h-5.8v-3.7h15.7v3.7zM108.4 21.2v6.5h8.3v3.7h-8.3V38h10.1v3.7h-14.2V17.5h14.2v3.7h-10.1zM137.1 33.1c1.6 1.3 2.5 3.3 2.5 5.5v3.1h-4v-2.9c0-2.1-1-3.9-4.1-3.9h-3.9v6.8h-4.1V17.5h7.9c5 0 8.2 3.2 8.2 7.4v2.6c0 2.3-.9 4.2-2.5 5.6zm-5.7-1.9c3.1 0 4.1-1.8 4.1-3.9v-2.2c0-2.1-1-3.9-4.1-3.9h-3.9v10h3.9zM158.3 33.1c1.6 1.3 2.5 3.3 2.5 5.5v3.1h-4v-2.9c0-2.1-1-3.9-4.1-3.9h-3.9v6.8h-4.1V17.5h7.9c5 0 8.2 3.2 8.2 7.4v2.6c0 2.3-.9 4.2-2.5 5.6zm-5.7-1.9c3.1 0 4.1-1.8 4.1-3.9v-2.2c0-2.1-1-3.9-4.1-3.9h-3.9v10h3.9zM169.9 41.7h-4.1V17.5h4.1v24.2zM190.5 21.2h-5.8v20.5h-4V21.2h-5.8v-3.7h15.7v3.7zM210.5 24.4v10.5c0 4.2-3 7.3-8 7.3-5.1 0-8.1-3.1-8.1-7.3V24.4c0-4.2 3-7.3 8.1-7.3 4.9 0 8 3.1 8 7.3zm-12.1.3v9.9c0 2.1.9 3.9 4 3.9s4-1.8 4-3.9v-9.9c0-2.1-.9-3.9-4-3.9-3 0-4 1.8-4 3.9zM219.6 41.7h-4.1V17.5h4.1v24.2zM238.2 33.1c1.6 1.3 2.5 3.3 2.5 5.5v3.1h-4v-2.9c0-2.1-1-3.9-4.1-3.9h-3.9v6.8h-4.1V17.5h7.9c5 0 8.2 3.2 8.2 7.4v2.6c0 2.3-.9 4.2-2.5 5.6zm-5.7-1.9c3.1 0 4.1-1.8 4.1-3.9v-2.2c0-2.1-1-3.9-4.1-3.9h-3.9v10h3.9zM249.8 21.2v6.5h8.3v3.7h-8.3V38h10.1v3.7h-14.2V17.5h14.2v3.7h-10.1zM276.3 26.2v-1.4c0-2.1-.9-3.9-4-3.9-3 0-4 1.6-4 3.7 0 2.7 3.8 2.9 7.2 4.2 2.9 1 4.9 3.1 4.9 6 0 4.2-3 7.4-8 7.4s-8.1-3.2-8.1-7.4v-1.2l4.1-.3v1.2c0 2.1.9 3.9 4 3.9 3 0 4-1.6 4-3.7 0-2.7-4.3-3-7.2-4.2-3.5-1.3-4.8-3.1-4.9-6 0-4.2 3-7.4 8-7.4s8.1 3.2 8.1 7.4v1.2l-4.1.5z"/><g><path class="st4" d="M117.5 89.2H109V72.3l-4.5 16.9h-7.6l-4.5-16.9v16.9h-8.6V57.7h10.3l6.4 20.4h.3l6.4-20.4h10.3v31.5zM131.6 65.6v3.9h9.1v7.9h-9.1v3.9H143v7.9h-20V57.7h20v7.9h-11.4zM182.3 89.2h-8.6V72.3l-4.5 16.9h-7.6l-4.5-16.9v16.9h-8.5V57.7h10.3l6.4 20.4h.3l6.4-20.4h10.3v31.5zM211.4 67.2v12.6c0 5.7-5.3 10.1-11.8 10.1-6.6 0-11.8-4.4-11.8-10.1V67.2c0-5.7 5.2-10.1 11.8-10.1 6.6-.1 11.8 4.4 11.8 10.1zm-15 .7V79c0 1.4.8 3 3.2 3 2.5 0 3.2-1.6 3.2-3V67.9c0-1.4-.8-3-3.2-3-2.3 0-3.2 1.6-3.2 3zM225.6 89.2H217V57.7h8.5v31.5zM254.7 71.9c0 2.4-1 4.7-2.6 6.4 1.6 1.8 2.6 4 2.6 6.4v4.5h-8.5v-4c0-1.4-.8-3-3.3-3h-3.2v7h-8.5V57.7H243c6.5 0 11.8 4.7 11.8 10.4v3.8zm-11.8 2.5c2.5 0 3.3-1.6 3.3-3v-2.8c0-1.4-.8-3-3.3-3h-3.2v8.8h3.2zM268.9 65.6v3.9h9.1v7.9h-9.1v3.9h11.4v7.9h-19.9V57.7h19.9v7.9h-11.4z"/></g><path fill="#e30613" d="M112.2 96.8l-11.6 20.1L89 96.8z"/><path class="st4" d="M100.6 130.4l-13.1-22.6H0v-2h88.7l11.9 20.6 11.9-20.6h142.2v2H113.6z"/><g><path class="st2" d="M264 49.2v2.2c0 1-.7 1.7-1.9 1.7h-1.8v-5.6h1.8c1.2 0 1.9.7 1.9 1.7zm-.9 0c0-.5-.2-.9-.9-.9h-.9v3.8h.9c.7 0 .9-.4.9-.9v-2zM266.1 48.3v1.5h1.9v.9h-1.9v1.5h2.3v.8h-3.3v-5.6h3.3v.9h-2.3zM275 52.2v.8h-3.2v-5.6h.9v4.7h2.3zM278.9 51.8h-1.7l-.3 1.2h-.9l1.5-5.6h1.1l1.5 5.6h-.9l-.3-1.2zm-.3-.8l-.6-2.5-.6 2.5h1.2z"/></g><g><path class="st2" d="M263.4 108.4h-1.7l-.3 1.2h-.9l1.5-5.6h1.1l1.5 5.6h-.9l-.3-1.2zm-.2-.8l-.6-2.5-.6 2.5h1.2zM268.2 106v-.3c0-.5-.2-.9-.9-.9s-.9.4-.9.8c0 .6.9.7 1.6 1 .7.2 1.1.7 1.1 1.4 0 1-.7 1.7-1.8 1.7s-1.9-.7-1.9-1.7v-.3l.9-.1v.3c0 .5.2.9.9.9s.9-.4.9-.8c0-.6-1-.7-1.6-1-.8-.3-1.1-.7-1.1-1.4 0-1 .7-1.7 1.8-1.7s1.8.7 1.8 1.7v.3l-.8.1zM272.3 104c1 0 1.7.7 1.7 1.6 0 .5-.2.9-.6 1.1.5.2.7.7.7 1.2 0 .9-.6 1.6-1.7 1.6h-2.1V104h2zm-1 2.4h1c.6 0 .8-.3.8-.8 0-.4-.2-.7-.8-.7h-1v1.5zm1.1 2.3c.6 0 .8-.3.8-.7 0-.4-.2-.7-.8-.7h-1.1v1.5h1.1zM278.4 108.7v.9h-3.2V104h.9v4.7h2.3z"/></g><path class="st2" d="M136.7 54.3h-6.8l4.1-6.9h6.7l-4 6.9z"/></g></g></svg>